G04*
G04 #@! TF.GenerationSoftware,Altium Limited,Altium Designer,20.0.2 (26)*
G04*
G04 Layer_Physical_Order=2*
G04 Layer_Color=16711680*
%FSLAX25Y25*%
%MOIN*%
G70*
G01*
G75*
%ADD10C,0.00787*%
%ADD30R,0.03740X0.05118*%
%ADD32R,0.03543X0.05315*%
%ADD38C,0.01968*%
%ADD39O,0.07087X0.05906*%
%ADD40O,0.15748X0.09843*%
%ADD41C,0.03150*%
%ADD42C,0.02500*%
%ADD43R,0.06299X0.05512*%
%ADD44R,0.03937X0.10630*%
%ADD45R,0.12992X0.10630*%
%ADD46R,0.05315X0.03543*%
%ADD47R,0.07000X0.03000*%
%ADD48R,0.06000X0.04000*%
%ADD49R,0.08000X0.06000*%
%ADD50R,0.05118X0.05906*%
G36*
X500133Y339350D02*
X501158Y338954D01*
X502078Y338355D01*
X502855Y337578D01*
X503454Y336658D01*
X503850Y335633D01*
X504026Y334549D01*
X504000Y334000D01*
Y275000D01*
X504026Y274451D01*
X503850Y273367D01*
X503454Y272342D01*
X502855Y271422D01*
X502078Y270645D01*
X501158Y270046D01*
X500133Y269650D01*
X499049Y269474D01*
X498500Y269500D01*
X498500Y269500D01*
X498000Y269500D01*
X350500Y269500D01*
X349951Y269474D01*
X348867Y269650D01*
X347842Y270046D01*
X346922Y270645D01*
X346145Y271422D01*
X345546Y272342D01*
X345150Y273367D01*
X344974Y274451D01*
X345000Y275000D01*
X345000D01*
Y278668D01*
X345260Y278719D01*
X345591Y278941D01*
X345812Y279271D01*
X345890Y279661D01*
Y329661D01*
X345812Y330052D01*
X345591Y330382D01*
X345260Y330603D01*
X345000Y330655D01*
Y334000D01*
X344974Y334549D01*
X345150Y335633D01*
X345546Y336658D01*
X346145Y337578D01*
X346922Y338355D01*
X347842Y338954D01*
X348867Y339350D01*
X349951Y339526D01*
X350500Y339500D01*
X444134D01*
X444245Y339046D01*
X444245Y339000D01*
Y333746D01*
X440245D01*
Y330590D01*
X439745Y330438D01*
X439622Y330622D01*
X438878Y331119D01*
X438000Y331294D01*
X437763Y331247D01*
X431505Y337505D01*
X431044Y337813D01*
X430500Y337921D01*
X414757D01*
X414622Y338122D01*
X413878Y338619D01*
X413000Y338794D01*
X412122Y338619D01*
X411378Y338122D01*
X410881Y337378D01*
X410706Y336500D01*
X410821Y335921D01*
X410459Y335421D01*
X377874D01*
X377330Y335313D01*
X376869Y335005D01*
X374022Y332157D01*
X370488D01*
Y330191D01*
X369988Y330040D01*
X369933Y330122D01*
X369189Y330619D01*
X368311Y330794D01*
X367433Y330619D01*
X366689Y330122D01*
X366192Y329378D01*
X366017Y328500D01*
X366192Y327622D01*
X366689Y326878D01*
X366890Y326743D01*
Y322006D01*
X366390Y321759D01*
X365958Y322091D01*
X364997Y322489D01*
X363965Y322625D01*
X363874D01*
Y318638D01*
Y314651D01*
X363965D01*
X364997Y314787D01*
X365958Y315185D01*
X366390Y315517D01*
X366890Y315270D01*
Y312163D01*
X366390Y311916D01*
X365958Y312248D01*
X364997Y312646D01*
X363965Y312782D01*
X362784D01*
X361752Y312646D01*
X360790Y312248D01*
X359964Y311614D01*
X359331Y310789D01*
X358932Y309827D01*
X358797Y308795D01*
X358932Y307763D01*
X359331Y306802D01*
X359964Y305976D01*
X360790Y305343D01*
X361306Y305129D01*
Y304588D01*
X360790Y304374D01*
X359964Y303740D01*
X359331Y302915D01*
X358932Y301953D01*
X358797Y300921D01*
X358932Y299889D01*
X359331Y298928D01*
X359964Y298102D01*
X360790Y297468D01*
X361752Y297070D01*
X362784Y296934D01*
X363965D01*
X364997Y297070D01*
X365958Y297468D01*
X366390Y297800D01*
X366890Y297553D01*
Y294446D01*
X366390Y294200D01*
X365958Y294531D01*
X364997Y294930D01*
X363965Y295066D01*
X362784D01*
X361752Y294930D01*
X360790Y294531D01*
X359964Y293898D01*
X359331Y293072D01*
X358932Y292111D01*
X358797Y291079D01*
X358932Y290047D01*
X359331Y289085D01*
X359581Y288758D01*
X359317Y288282D01*
X358453Y288367D01*
X356000D01*
Y282917D01*
X364353D01*
X364288Y283578D01*
X363950Y284694D01*
X363400Y285723D01*
X362679Y286601D01*
X362716Y286827D01*
X362879Y287092D01*
X363965D01*
X364997Y287228D01*
X365958Y287626D01*
X366784Y288260D01*
X367417Y289085D01*
X367464Y289198D01*
X367954Y289296D01*
X370488Y286762D01*
Y282343D01*
X374148D01*
X378495Y277995D01*
X378956Y277687D01*
X379500Y277579D01*
X395243D01*
X395378Y277378D01*
X396122Y276881D01*
X397000Y276706D01*
X397878Y276881D01*
X398622Y277378D01*
X399119Y278122D01*
X399294Y279000D01*
X399119Y279878D01*
X398622Y280622D01*
X398421Y280757D01*
Y287977D01*
X408020D01*
X408794Y288131D01*
X409450Y288569D01*
X416897Y296016D01*
X419973D01*
Y308646D01*
X418817D01*
Y313287D01*
X420240D01*
Y318831D01*
X412925D01*
Y313287D01*
X414770D01*
Y308646D01*
X414036D01*
Y298877D01*
X411417Y296259D01*
X410917Y296466D01*
Y308646D01*
X409842D01*
Y310677D01*
X410461D01*
Y317992D01*
X409592D01*
Y319980D01*
X410319D01*
Y325089D01*
X411309Y326079D01*
X412925D01*
Y324039D01*
X416583D01*
X420240D01*
Y326079D01*
X421764D01*
X423201Y324643D01*
Y318747D01*
X423201D01*
Y318319D01*
X423201D01*
Y310413D01*
X423201D01*
Y309985D01*
X423201D01*
Y302080D01*
X423201D01*
Y301652D01*
X423201D01*
Y293747D01*
X424737D01*
Y292158D01*
X423988D01*
Y284842D01*
X426670D01*
X430443Y281069D01*
X431100Y280631D01*
X431874Y280477D01*
X440500D01*
X441274Y280631D01*
X441931Y281069D01*
X454931Y294069D01*
X455369Y294726D01*
X455523Y295500D01*
Y307402D01*
X455369Y308176D01*
X454931Y308833D01*
X452899Y310864D01*
X452243Y311302D01*
X451469Y311456D01*
X449245D01*
Y315658D01*
Y317658D01*
X444745D01*
Y318658D01*
X449245D01*
Y320021D01*
Y324383D01*
Y328746D01*
Y333046D01*
X452245D01*
Y339000D01*
X452245Y339046D01*
X452356Y339500D01*
X480793D01*
X481145Y339146D01*
X481145Y339000D01*
Y331146D01*
X491145D01*
Y339000D01*
X491145Y339146D01*
X491497Y339500D01*
X498500D01*
X499049Y339526D01*
X500133Y339350D01*
D02*
G37*
G36*
X435753Y329237D02*
X435706Y329000D01*
X435881Y328122D01*
X436378Y327378D01*
X436716Y327152D01*
X436564Y326652D01*
X430681D01*
Y326652D01*
X430319D01*
Y326652D01*
X425210D01*
X423584Y328279D01*
X423830Y328740D01*
X424000Y328706D01*
X424878Y328881D01*
X425622Y329378D01*
X426119Y330122D01*
X426294Y331000D01*
X426119Y331878D01*
X425622Y332622D01*
X424878Y333120D01*
X424000Y333294D01*
X423763Y333247D01*
X422431Y334579D01*
X422638Y335079D01*
X429911D01*
X435753Y329237D01*
D02*
G37*
G36*
X417706Y330500D02*
X417881Y329622D01*
X418054Y329362D01*
X417819Y328921D01*
X410720D01*
X410177Y328813D01*
X409716Y328505D01*
X408309Y327098D01*
X404579D01*
Y319980D01*
X405546D01*
Y317992D01*
X404917D01*
Y310677D01*
X405796D01*
Y308646D01*
X404980D01*
Y304373D01*
X404480Y304106D01*
X404213Y304285D01*
X403835Y304360D01*
Y302165D01*
Y299971D01*
X404213Y300046D01*
X404480Y300225D01*
X404980Y299958D01*
Y296016D01*
X410467D01*
X410674Y295516D01*
X407182Y292023D01*
X398022D01*
X397878Y292120D01*
X397000Y292294D01*
X396565Y292670D01*
Y296016D01*
X398394D01*
Y302331D01*
Y308646D01*
X395925D01*
Y304738D01*
X395463Y304546D01*
X394747Y305263D01*
X394794Y305500D01*
X394619Y306378D01*
X394122Y307122D01*
X393647Y307439D01*
X393262Y307717D01*
Y315228D01*
X384963D01*
Y310432D01*
X384921Y310423D01*
X384460Y310115D01*
X382623Y308278D01*
X382161Y308470D01*
Y321151D01*
X384501Y323491D01*
X384963Y323300D01*
Y316772D01*
X393262D01*
Y324284D01*
X385946D01*
X385755Y324745D01*
X391589Y330579D01*
X417641D01*
X417706Y330500D01*
D02*
G37*
G36*
X377969Y331432D02*
Y329000D01*
X380740D01*
Y328500D01*
X381240D01*
Y324696D01*
X381371Y324381D01*
X379735Y322745D01*
X379427Y322284D01*
X379319Y321740D01*
Y307157D01*
X377969D01*
Y299843D01*
X383512D01*
Y305148D01*
X386053Y307689D01*
X386750D01*
X386888Y307716D01*
X390867D01*
X391019Y307217D01*
X390878Y307122D01*
X390381Y306378D01*
X390206Y305500D01*
X390216Y305449D01*
X389768Y305141D01*
X389000Y305294D01*
X388122Y305119D01*
X387378Y304622D01*
X386880Y303878D01*
X386706Y303000D01*
X386880Y302122D01*
X387378Y301378D01*
X387579Y301243D01*
Y297257D01*
X387378Y297122D01*
X386880Y296378D01*
X386706Y295500D01*
X386776Y295150D01*
X386350Y294724D01*
X386000Y294794D01*
X385122Y294619D01*
X384378Y294122D01*
X384012Y293574D01*
X383512Y293726D01*
Y298408D01*
X377969D01*
Y291092D01*
X381502D01*
X382475Y290119D01*
X382284Y289657D01*
X381240D01*
Y286500D01*
X383512D01*
Y288430D01*
X383974Y288621D01*
X389889Y282705D01*
X390023Y282031D01*
X390521Y281287D01*
X391069Y280921D01*
X390917Y280421D01*
X380089D01*
X378629Y281881D01*
X378820Y282343D01*
X380240D01*
Y285500D01*
X377969D01*
Y283194D01*
X377507Y283003D01*
X376031Y284478D01*
Y289657D01*
X371612D01*
X370677Y290593D01*
X370884Y291092D01*
X372760D01*
Y294250D01*
X370488D01*
Y291698D01*
X369994Y291475D01*
X369732Y291678D01*
Y307329D01*
X370002Y307716D01*
X370232Y307716D01*
X378302D01*
Y315228D01*
X370232D01*
X370002Y315228D01*
X369732Y315616D01*
Y316384D01*
X370002Y316772D01*
X378302D01*
Y324284D01*
X375573D01*
Y324843D01*
X376031D01*
Y330148D01*
X377507Y331623D01*
X377969Y331432D01*
D02*
G37*
G36*
X440245Y298253D02*
Y293846D01*
X448331D01*
X448523Y293384D01*
X439662Y284523D01*
X437380D01*
X437012Y284842D01*
Y288000D01*
X434240D01*
X431468D01*
Y286420D01*
X431007Y286229D01*
X429531Y287704D01*
Y292158D01*
X428783D01*
Y293747D01*
X430319D01*
Y293747D01*
X430681D01*
Y293747D01*
X437799D01*
Y296438D01*
X439745Y298384D01*
X440245Y298253D01*
D02*
G37*
G36*
X393723Y293006D02*
Y291856D01*
X393831Y291313D01*
X394139Y290851D01*
X394753Y290237D01*
X394706Y290000D01*
X394881Y289122D01*
X395378Y288378D01*
X395579Y288243D01*
Y280757D01*
X395378Y280622D01*
X395243Y280421D01*
X393368D01*
X393217Y280921D01*
X393765Y281287D01*
X394262Y282031D01*
X394437Y282909D01*
X394262Y283787D01*
X393765Y284532D01*
X393021Y285029D01*
X392143Y285204D01*
X391532Y285082D01*
X386715Y289899D01*
X386839Y290304D01*
X386915Y290406D01*
X387622Y290878D01*
X387757Y291079D01*
X390500D01*
X391044Y291187D01*
X391505Y291495D01*
X393223Y293213D01*
X393723Y293006D01*
D02*
G37*
%LPC*%
G36*
X358453Y333249D02*
X356000D01*
Y327799D01*
X364353D01*
X364288Y328460D01*
X363950Y329576D01*
X363400Y330605D01*
X362660Y331506D01*
X361758Y332246D01*
X360730Y332796D01*
X359613Y333135D01*
X358453Y333249D01*
D02*
G37*
G36*
X355000D02*
X352547D01*
X351386Y333135D01*
X350270Y332796D01*
X349242Y332246D01*
X348340Y331506D01*
X347600Y330605D01*
X347050Y329576D01*
X346712Y328460D01*
X346647Y327799D01*
X355000D01*
Y333249D01*
D02*
G37*
G36*
Y326799D02*
X346647D01*
X346712Y326138D01*
X347050Y325022D01*
X347600Y323994D01*
X348340Y323092D01*
X349242Y322352D01*
X350270Y321802D01*
X351386Y321464D01*
X352547Y321349D01*
X355000D01*
Y326799D01*
D02*
G37*
G36*
X420240Y323039D02*
X417083D01*
Y320768D01*
X420240D01*
Y323039D01*
D02*
G37*
G36*
X416083D02*
X412925D01*
Y320768D01*
X416083D01*
Y323039D01*
D02*
G37*
G36*
X364353Y326799D02*
X356000D01*
Y321349D01*
X358453D01*
X359317Y321434D01*
X359581Y320958D01*
X359331Y320631D01*
X358932Y319670D01*
X358862Y319138D01*
X362874D01*
Y322632D01*
X362716Y322890D01*
X362679Y323115D01*
X363400Y323994D01*
X363950Y325022D01*
X364288Y326138D01*
X364353Y326799D01*
D02*
G37*
G36*
X362874Y318138D02*
X358862D01*
X358932Y317606D01*
X359331Y316644D01*
X359964Y315819D01*
X360790Y315185D01*
X361752Y314787D01*
X362784Y314651D01*
X362874D01*
Y318138D01*
D02*
G37*
G36*
X355500Y316909D02*
X354674Y316800D01*
X353904Y316481D01*
X353242Y315974D01*
X352735Y315313D01*
X352416Y314543D01*
X352307Y313717D01*
X352416Y312890D01*
X352735Y312120D01*
X353242Y311459D01*
X353904Y310952D01*
X354674Y310633D01*
X355500Y310524D01*
X356326Y310633D01*
X357096Y310952D01*
X357757Y311459D01*
X358265Y312120D01*
X358584Y312890D01*
X358693Y313717D01*
X358584Y314543D01*
X358265Y315313D01*
X357757Y315974D01*
X357096Y316481D01*
X356326Y316800D01*
X355500Y316909D01*
D02*
G37*
G36*
Y299193D02*
X354674Y299084D01*
X353904Y298765D01*
X353242Y298257D01*
X352735Y297596D01*
X352416Y296826D01*
X352307Y296000D01*
X352416Y295174D01*
X352735Y294404D01*
X353242Y293742D01*
X353904Y293235D01*
X354674Y292916D01*
X355500Y292807D01*
X356326Y292916D01*
X357096Y293235D01*
X357757Y293742D01*
X358265Y294404D01*
X358584Y295174D01*
X358693Y296000D01*
X358584Y296826D01*
X358265Y297596D01*
X357757Y298257D01*
X357096Y298765D01*
X356326Y299084D01*
X355500Y299193D01*
D02*
G37*
G36*
X355000Y288367D02*
X352547D01*
X351386Y288253D01*
X350270Y287914D01*
X349242Y287365D01*
X348340Y286625D01*
X347600Y285723D01*
X347050Y284694D01*
X346712Y283578D01*
X346647Y282917D01*
X355000D01*
Y288367D01*
D02*
G37*
G36*
X454245Y282346D02*
X449745D01*
Y278846D01*
X454245D01*
Y282346D01*
D02*
G37*
G36*
X448745D02*
X444245D01*
Y278846D01*
X448745D01*
Y282346D01*
D02*
G37*
G36*
X364353Y281917D02*
X356000D01*
Y276467D01*
X358453D01*
X359613Y276582D01*
X360730Y276920D01*
X361758Y277470D01*
X362660Y278210D01*
X363400Y279112D01*
X363950Y280140D01*
X364288Y281257D01*
X364353Y281917D01*
D02*
G37*
G36*
X355000D02*
X346647D01*
X346712Y281257D01*
X347050Y280140D01*
X347600Y279112D01*
X348340Y278210D01*
X349242Y277470D01*
X350270Y276920D01*
X351386Y276582D01*
X352547Y276467D01*
X355000D01*
Y281917D01*
D02*
G37*
G36*
X454245Y277846D02*
X449745D01*
Y274346D01*
X454245D01*
Y277846D01*
D02*
G37*
G36*
X448745D02*
X444245D01*
Y274346D01*
X448745D01*
Y277846D01*
D02*
G37*
G36*
X415445Y285417D02*
X400453D01*
Y272787D01*
X415445D01*
Y285417D01*
D02*
G37*
G36*
X490845Y278546D02*
X480845D01*
Y270546D01*
X490845D01*
Y278546D01*
D02*
G37*
G36*
X403823Y327098D02*
X401453D01*
Y324039D01*
X403823D01*
Y327098D01*
D02*
G37*
G36*
X400453D02*
X398083D01*
Y324039D01*
X400453D01*
Y327098D01*
D02*
G37*
G36*
X403823Y323039D02*
X401453D01*
Y319980D01*
X403823D01*
Y323039D01*
D02*
G37*
G36*
X400453D02*
X398083D01*
Y319980D01*
X400453D01*
Y323039D01*
D02*
G37*
G36*
X402980Y317992D02*
X400709D01*
Y314835D01*
X402980D01*
Y317992D01*
D02*
G37*
G36*
X399709D02*
X397437D01*
Y314835D01*
X399709D01*
Y317992D01*
D02*
G37*
G36*
X402980Y313835D02*
X400709D01*
Y310677D01*
X402980D01*
Y313835D01*
D02*
G37*
G36*
X399709D02*
X397437D01*
Y310677D01*
X399709D01*
Y313835D01*
D02*
G37*
G36*
X401862Y308646D02*
X399394D01*
Y302331D01*
Y296016D01*
X401862D01*
Y299913D01*
X402303Y300149D01*
X402457Y300046D01*
X402835Y299971D01*
Y302165D01*
Y304360D01*
X402457Y304285D01*
X402303Y304182D01*
X401862Y304418D01*
Y308646D01*
D02*
G37*
G36*
X380240Y328000D02*
X377969D01*
Y324843D01*
X380240D01*
Y328000D01*
D02*
G37*
G36*
X376031Y307157D02*
X373760D01*
Y304000D01*
X376031D01*
Y307157D01*
D02*
G37*
G36*
X372760D02*
X370488D01*
Y304000D01*
X372760D01*
Y307157D01*
D02*
G37*
G36*
X376031Y303000D02*
X373760D01*
Y299843D01*
X376031D01*
Y303000D01*
D02*
G37*
G36*
X372760D02*
X370488D01*
Y299843D01*
X372760D01*
Y303000D01*
D02*
G37*
G36*
X376031Y298408D02*
X373760D01*
Y295250D01*
X376031D01*
Y298408D01*
D02*
G37*
G36*
X372760D02*
X370488D01*
Y295250D01*
X372760D01*
Y298408D01*
D02*
G37*
G36*
X376031Y294250D02*
X373760D01*
Y291092D01*
X376031D01*
Y294250D01*
D02*
G37*
G36*
X380240Y289657D02*
X377969D01*
Y286500D01*
X380240D01*
Y289657D01*
D02*
G37*
G36*
X383512Y285500D02*
X381240D01*
Y282343D01*
X383512D01*
Y285500D01*
D02*
G37*
G36*
X437012Y292158D02*
X434740D01*
Y289000D01*
X437012D01*
Y292158D01*
D02*
G37*
G36*
X433740D02*
X431468D01*
Y289000D01*
X433740D01*
Y292158D01*
D02*
G37*
%LPD*%
D10*
X430500Y336500D02*
X438000Y329000D01*
X391695Y282909D02*
X392143D01*
X395144Y291856D02*
X397000Y290000D01*
Y279000D02*
Y290000D01*
X392500Y294500D02*
Y300000D01*
X390500Y292500D02*
X392500Y294500D01*
X386000Y292500D02*
X390500D01*
X389000Y295500D02*
Y303000D01*
X398894Y302331D02*
X403169D01*
X403335Y302165D01*
X395144Y291856D02*
Y302856D01*
X392500Y305500D02*
X395144Y302856D01*
X368311Y290949D02*
X373260Y286000D01*
X368311Y290949D02*
Y328500D01*
X413000Y336500D02*
X430500D01*
X379500Y279000D02*
X397000D01*
X373260Y285240D02*
Y286000D01*
Y285240D02*
X379500Y279000D01*
X418500Y332000D02*
X420000Y330500D01*
X391000Y332000D02*
X418500D01*
X380740Y321740D02*
X391000Y332000D01*
X421000Y334000D02*
X424000Y331000D01*
X377874Y334000D02*
X421000D01*
X380740Y293864D02*
X391695Y282909D01*
X380740Y293864D02*
Y294750D01*
X410720Y327500D02*
X422353D01*
X407449Y324228D02*
X410720Y327500D01*
X422353D02*
X426760Y323093D01*
Y322699D02*
Y323093D01*
X407449Y323539D02*
Y324228D01*
X374152Y320528D02*
Y327608D01*
X373260Y328500D02*
X374152Y327608D01*
X380740Y304386D02*
Y321740D01*
Y303500D02*
Y304386D01*
X385465Y309110D01*
X386750D01*
X389113Y311472D01*
X373260Y328500D02*
Y329386D01*
X377874Y334000D01*
D30*
X400953Y323539D02*
D03*
X407449D02*
D03*
D32*
X373260Y303500D02*
D03*
X380740D02*
D03*
X380740Y328500D02*
D03*
X373260D02*
D03*
X373260Y294750D02*
D03*
X380740D02*
D03*
X373260Y286000D02*
D03*
X380740D02*
D03*
X407689Y314335D02*
D03*
X400209D02*
D03*
X434240Y288500D02*
D03*
X426760D02*
D03*
D38*
X408020Y290000D02*
X417004Y298984D01*
X397000Y290000D02*
X408020D01*
X439000Y300500D02*
X444953D01*
X450000D01*
X453500Y295500D02*
Y307402D01*
X440500Y282500D02*
X453500Y295500D01*
X451469Y309433D02*
X453500Y307402D01*
X444745Y309433D02*
X451469D01*
X434958Y313856D02*
X445394D01*
X434810Y313796D02*
X434914Y313900D01*
X417004Y298984D02*
Y302331D01*
X431874Y282500D02*
X440500D01*
X426760Y287614D02*
Y288500D01*
Y287614D02*
X431874Y282500D01*
X434914Y313900D02*
X434958Y313856D01*
X443150Y322471D02*
X444695D01*
X434469D02*
X443150D01*
X434240Y322699D02*
X434469Y322471D01*
X444695D02*
X444745Y322521D01*
X435048Y305225D02*
X442750D01*
X434240Y306033D02*
X435048Y305225D01*
X442750D02*
X444591D01*
X436200Y297699D02*
X439000Y300500D01*
X444745Y300708D02*
X444953Y300500D01*
X434810Y313796D02*
X444745D01*
X426760Y297699D02*
X426760Y297699D01*
X426760Y288500D02*
Y297699D01*
X426760Y297699D02*
Y306033D01*
Y314366D01*
Y322699D01*
X434240Y297699D02*
X436200D01*
X444591Y305225D02*
X444745Y305071D01*
X416793Y302541D02*
X417004Y302331D01*
X416793Y302541D02*
Y315848D01*
X416583Y316059D02*
X416793Y315848D01*
X407569Y314455D02*
X407689Y314335D01*
X407569Y314455D02*
Y323419D01*
X407449Y323539D02*
X407569Y323419D01*
X407819Y302461D02*
X407949Y302331D01*
X407819Y302461D02*
Y314205D01*
X407689Y314335D02*
X407819Y314205D01*
D39*
X363374Y318638D02*
D03*
Y308795D02*
D03*
Y300921D02*
D03*
Y291079D02*
D03*
D40*
X355500Y327299D02*
D03*
Y282417D02*
D03*
D41*
Y313717D02*
D03*
Y296000D02*
D03*
D42*
X440000Y337000D02*
D03*
X438000Y329000D02*
D03*
X432500D02*
D03*
X385500Y275000D02*
D03*
X452400Y314900D02*
D03*
X450000Y300500D02*
D03*
X440500Y290000D02*
D03*
X372965Y294750D02*
D03*
X392143Y282909D02*
D03*
X397000Y290000D02*
D03*
X385500Y282500D02*
D03*
X389000Y303000D02*
D03*
Y295500D02*
D03*
X403335Y302165D02*
D03*
X386000Y292500D02*
D03*
X392500Y300000D02*
D03*
Y305500D02*
D03*
X368311Y328500D02*
D03*
X413000Y336500D02*
D03*
X397000Y279000D02*
D03*
X420000Y330500D02*
D03*
X424000Y331000D02*
D03*
X445394Y313856D02*
D03*
X443150Y322471D02*
D03*
X442750Y305225D02*
D03*
X373260Y286000D02*
D03*
D43*
X389113Y311472D02*
D03*
X374152D02*
D03*
Y320528D02*
D03*
X389113D02*
D03*
D44*
X398894Y302331D02*
D03*
X407949D02*
D03*
X417004D02*
D03*
D45*
X407949Y279102D02*
D03*
D46*
X416583Y316059D02*
D03*
Y323539D02*
D03*
D47*
X444745Y326883D02*
D03*
Y296346D02*
D03*
Y305071D02*
D03*
Y313796D02*
D03*
Y331246D02*
D03*
Y322521D02*
D03*
Y318158D02*
D03*
Y309433D02*
D03*
Y300708D02*
D03*
D48*
X448245Y336046D02*
D03*
D49*
X486145Y335146D02*
D03*
X449245Y278346D02*
D03*
X485845Y274546D02*
D03*
D50*
X434240Y297699D02*
D03*
X426760D02*
D03*
X434240Y314366D02*
D03*
X426760D02*
D03*
X434240Y306033D02*
D03*
X426760D02*
D03*
X434240Y322699D02*
D03*
X426760D02*
D03*
M02*
