G04*
G04 #@! TF.GenerationSoftware,Altium Limited,Altium Designer,20.0.2 (26)*
G04*
G04 Layer_Color=32896*
%FSLAX25Y25*%
%MOIN*%
G70*
G01*
G75*
%ADD10C,0.00787*%
%ADD11C,0.00984*%
%ADD15C,0.00394*%
%ADD59C,0.01000*%
D10*
X394388Y311433D02*
G03*
X394388Y311433I-394J0D01*
G01*
X378483Y309504D02*
X384782D01*
X378483Y322496D02*
X384782D01*
X403610Y321374D02*
X404791D01*
X403610Y325705D02*
X404791D01*
X394760Y295835D02*
X421138D01*
X394760Y285598D02*
X421138D01*
X394760D02*
Y295835D01*
X421138Y285598D02*
Y295835D01*
X423709Y294255D02*
Y301144D01*
Y294255D02*
X437291D01*
Y301144D01*
X423709D02*
X437291D01*
X423709Y310921D02*
Y317811D01*
Y310921D02*
X437291D01*
Y317811D01*
X423709D02*
X437291D01*
X423709Y302588D02*
Y309478D01*
Y302588D02*
X437291D01*
Y309478D01*
X423709D02*
X437291D01*
X423709Y319255D02*
Y326144D01*
Y319255D02*
X437291D01*
Y326144D01*
X423709D02*
X437291D01*
D11*
X395252Y302331D02*
G03*
X395252Y302331I-492J0D01*
G01*
D15*
X376606Y301236D02*
X377394D01*
X376606Y305764D02*
X377394D01*
X383201Y300055D02*
Y306945D01*
X370799Y300055D02*
Y306945D01*
Y300055D02*
X373900D01*
X380100D02*
X383201D01*
X370799Y306945D02*
X373900D01*
X380100D02*
X383201D01*
X376606Y330764D02*
X377394D01*
X376606Y326236D02*
X377394D01*
X370799Y325055D02*
Y331945D01*
X383201Y325055D02*
Y331945D01*
X380100D02*
X383201D01*
X370799D02*
X373900D01*
X380100Y325055D02*
X383201D01*
X370799D02*
X373900D01*
X376606Y292486D02*
X377394D01*
X376606Y297014D02*
X377394D01*
X383201Y291305D02*
Y298195D01*
X370799Y291305D02*
Y298195D01*
Y291305D02*
X373900D01*
X380100D02*
X383201D01*
X370799Y298195D02*
X373900D01*
X380100D02*
X383201D01*
X370799Y282555D02*
X373900D01*
X380100D02*
X383201D01*
X370799Y289445D02*
X373900D01*
X380100D02*
X383201D01*
Y282555D02*
Y289445D01*
X370799Y282555D02*
Y289445D01*
X376606Y283736D02*
X377394D01*
X376606Y288264D02*
X377394D01*
X407049Y317779D02*
X410150D01*
X397748D02*
X400848D01*
X407049Y310890D02*
X410150D01*
X397748D02*
X400848D01*
X397748D02*
Y317779D01*
X410150Y310890D02*
Y317779D01*
X403555Y316598D02*
X404343D01*
X403555Y312071D02*
X404343D01*
X420028Y313598D02*
Y316699D01*
Y322900D02*
Y326000D01*
X413138Y313598D02*
Y316699D01*
Y322900D02*
Y326000D01*
X420028D01*
X413138Y313598D02*
X420028D01*
X418847Y319406D02*
Y320193D01*
X414319Y319406D02*
Y320193D01*
X433600Y291945D02*
X436701D01*
X424299D02*
X427400D01*
X433600Y285055D02*
X436701D01*
X424299D02*
X427400D01*
X424299D02*
Y291945D01*
X436701Y285055D02*
Y291945D01*
X430106Y290764D02*
X430894D01*
X430106Y286236D02*
X430894D01*
X438812Y288050D02*
X439074Y287787D01*
Y287262D01*
X438812Y287000D01*
X437762D01*
X437500Y287262D01*
Y287787D01*
X437762Y288050D01*
X439074Y289624D02*
X438812Y289099D01*
X438287Y288574D01*
X437762D01*
X437500Y288837D01*
Y289361D01*
X437762Y289624D01*
X438025D01*
X438287Y289361D01*
Y288574D01*
X397953Y325539D02*
X396378D01*
Y324752D01*
X396641Y324490D01*
X397166D01*
X397428Y324752D01*
Y325539D01*
Y325015D02*
X397953Y324490D01*
Y323965D02*
Y323440D01*
Y323703D01*
X396378D01*
X396641Y323965D01*
X397953Y322653D02*
Y322128D01*
Y322391D01*
X396378D01*
X396641Y322653D01*
X438260Y296199D02*
X439834D01*
Y296987D01*
X439572Y297249D01*
X439047D01*
X438785Y296987D01*
Y296199D01*
Y296724D02*
X438260Y297249D01*
Y297774D02*
Y298299D01*
Y298036D01*
X439834D01*
X439572Y297774D01*
Y299086D02*
X439834Y299348D01*
Y299873D01*
X439572Y300135D01*
X438522D01*
X438260Y299873D01*
Y299348D01*
X438522Y299086D01*
X439572D01*
X438260Y313199D02*
X439834D01*
Y313987D01*
X439572Y314249D01*
X439047D01*
X438785Y313987D01*
Y313199D01*
Y313724D02*
X438260Y314249D01*
X438522Y314774D02*
X438260Y315036D01*
Y315561D01*
X438522Y315823D01*
X439572D01*
X439834Y315561D01*
Y315036D01*
X439572Y314774D01*
X439309D01*
X439047Y315036D01*
Y315823D01*
X438260Y321199D02*
X439834D01*
Y321987D01*
X439572Y322249D01*
X439047D01*
X438785Y321987D01*
Y321199D01*
Y321724D02*
X438260Y322249D01*
X439572Y322774D02*
X439834Y323036D01*
Y323561D01*
X439572Y323823D01*
X439309D01*
X439047Y323561D01*
X438785Y323823D01*
X438522D01*
X438260Y323561D01*
Y323036D01*
X438522Y322774D01*
X438785D01*
X439047Y323036D01*
X439309Y322774D01*
X439572D01*
X439047Y323036D02*
Y323561D01*
X438260Y304699D02*
X439834D01*
Y305487D01*
X439572Y305749D01*
X439047D01*
X438785Y305487D01*
Y304699D01*
Y305224D02*
X438260Y305749D01*
X439834Y306274D02*
Y307323D01*
X439572D01*
X438522Y306274D01*
X438260D01*
X395637Y314785D02*
X395375Y315048D01*
Y315572D01*
X395637Y315835D01*
X396687D01*
X396949Y315572D01*
Y315048D01*
X396687Y314785D01*
X395637Y314260D02*
X395375Y313998D01*
Y313473D01*
X395637Y313211D01*
X395899D01*
X396162Y313473D01*
X396424Y313211D01*
X396687D01*
X396949Y313473D01*
Y313998D01*
X396687Y314260D01*
X396424D01*
X396162Y313998D01*
X395899Y314260D01*
X395637D01*
X396162Y313998D02*
Y313473D01*
X416632Y311487D02*
X416370Y311225D01*
X415845D01*
X415583Y311487D01*
Y312537D01*
X415845Y312799D01*
X416370D01*
X416632Y312537D01*
X417157Y311225D02*
X418207D01*
Y311487D01*
X417157Y312537D01*
Y312799D01*
X368688Y294951D02*
X368426Y295213D01*
Y295738D01*
X368688Y296000D01*
X369738D01*
X370000Y295738D01*
Y295213D01*
X369738Y294951D01*
X368426Y293376D02*
Y294426D01*
X369213D01*
X368951Y293901D01*
Y293639D01*
X369213Y293376D01*
X369738D01*
X370000Y293639D01*
Y294163D01*
X369738Y294426D01*
X368688Y286451D02*
X368426Y286713D01*
Y287238D01*
X368688Y287500D01*
X369738D01*
X370000Y287238D01*
Y286713D01*
X369738Y286451D01*
X370000Y285139D02*
X368426D01*
X369213Y285926D01*
Y284876D01*
X368660Y328931D02*
X368398Y329193D01*
Y329718D01*
X368660Y329980D01*
X369710D01*
X369972Y329718D01*
Y329193D01*
X369710Y328931D01*
X368660Y328406D02*
X368398Y328144D01*
Y327619D01*
X368660Y327357D01*
X368923D01*
X369185Y327619D01*
Y327881D01*
Y327619D01*
X369448Y327357D01*
X369710D01*
X369972Y327619D01*
Y328144D01*
X369710Y328406D01*
X368660Y303931D02*
X368398Y304193D01*
Y304718D01*
X368660Y304980D01*
X369710D01*
X369972Y304718D01*
Y304193D01*
X369710Y303931D01*
X369972Y302357D02*
Y303406D01*
X368923Y302357D01*
X368660D01*
X368398Y302619D01*
Y303144D01*
X368660Y303406D01*
D59*
X447252Y275972D02*
X503453D01*
X447252Y334437D02*
X500598D01*
Y295756D02*
X503453Y292902D01*
Y275972D02*
Y292902D01*
X500598Y295756D02*
Y334437D01*
X447252Y275972D02*
Y334437D01*
M02*
