M48
;Layer_Color=9474304
;FILE_FORMAT=2:4
INCH,LZ
;TYPE=PLATED
T1F00S00C0.0140
T2F00S00C0.0394
;TYPE=NON_PLATED
T4F00S00C0.0433
%
T01
X037326Y0286
X037296Y029475
X0386Y02925
X0389Y02955
Y0303
X03925Y03055
Y03
X040333Y030217
X0397Y029
Y0279
X039214Y028291
X03855Y02825
Y0275
X04405Y029
X044275Y030522
X045Y03005
X04524Y03149
X044539Y031386
X044315Y032247
X0438Y0329
X04325
X0424Y0331
X042Y03305
X0413Y03365
X044Y0337
X036831Y03285
T02
X036337Y029108
Y030092
Y03088
Y031864
T04
X03555Y0296
Y031372
M30
