G04*
G04 #@! TF.GenerationSoftware,Altium Limited,Altium Designer,20.0.2 (26)*
G04*
G04 Layer_Physical_Order=1*
G04 Layer_Color=255*
%FSLAX25Y25*%
%MOIN*%
G70*
G01*
G75*
%ADD10C,0.00787*%
%ADD30R,0.03740X0.05118*%
%ADD31R,0.04331X0.04724*%
%ADD32R,0.03543X0.05315*%
%ADD33R,0.20472X0.20472*%
G04:AMPARAMS|DCode=34|XSize=39.76mil|YSize=10.24mil|CornerRadius=1.28mil|HoleSize=0mil|Usage=FLASHONLY|Rotation=90.000|XOffset=0mil|YOffset=0mil|HoleType=Round|Shape=RoundedRectangle|*
%AMROUNDEDRECTD34*
21,1,0.03976,0.00768,0,0,90.0*
21,1,0.03720,0.01024,0,0,90.0*
1,1,0.00256,0.00384,0.01860*
1,1,0.00256,0.00384,-0.01860*
1,1,0.00256,-0.00384,-0.01860*
1,1,0.00256,-0.00384,0.01860*
%
%ADD34ROUNDEDRECTD34*%
G04:AMPARAMS|DCode=35|XSize=10.24mil|YSize=39.76mil|CornerRadius=1.28mil|HoleSize=0mil|Usage=FLASHONLY|Rotation=90.000|XOffset=0mil|YOffset=0mil|HoleType=Round|Shape=RoundedRectangle|*
%AMROUNDEDRECTD35*
21,1,0.01024,0.03720,0,0,90.0*
21,1,0.00768,0.03976,0,0,90.0*
1,1,0.00256,0.01860,0.00384*
1,1,0.00256,0.01860,-0.00384*
1,1,0.00256,-0.01860,-0.00384*
1,1,0.00256,-0.01860,0.00384*
%
%ADD35ROUNDEDRECTD35*%
%ADD36R,0.04724X0.04331*%
%ADD37R,0.09843X0.03937*%
%ADD38C,0.01968*%
%ADD39O,0.07087X0.05906*%
%ADD40O,0.15748X0.09843*%
%ADD41C,0.03150*%
%ADD42C,0.02500*%
G36*
X500133Y339350D02*
X501158Y338954D01*
X502078Y338355D01*
X502855Y337578D01*
X503454Y336658D01*
X503850Y335633D01*
X504026Y334549D01*
X504000Y334000D01*
Y275000D01*
X504026Y274451D01*
X503850Y273367D01*
X503454Y272342D01*
X502855Y271422D01*
X502078Y270645D01*
X501158Y270046D01*
X500133Y269650D01*
X499049Y269474D01*
X498500Y269500D01*
X498500Y269500D01*
X498000Y269500D01*
X350500Y269500D01*
X349951Y269474D01*
X348867Y269650D01*
X347842Y270046D01*
X346922Y270645D01*
X346145Y271422D01*
X345546Y272342D01*
X345150Y273367D01*
X344974Y274451D01*
X345000Y275000D01*
X345000D01*
Y278668D01*
X345260Y278719D01*
X345591Y278941D01*
X345812Y279271D01*
X345890Y279661D01*
Y329661D01*
X345812Y330052D01*
X345591Y330382D01*
X345260Y330603D01*
X345000Y330655D01*
Y334000D01*
X344974Y334549D01*
X345150Y335633D01*
X345546Y336658D01*
X346145Y337578D01*
X346922Y338355D01*
X347842Y338954D01*
X348867Y339350D01*
X349951Y339526D01*
X350500Y339500D01*
X418836D01*
X418990Y339021D01*
X418990Y339000D01*
X415633Y335643D01*
X415173Y335889D01*
X415294Y336500D01*
X415119Y337378D01*
X414622Y338122D01*
X413878Y338619D01*
X413000Y338794D01*
X412122Y338619D01*
X411378Y338122D01*
X410881Y337378D01*
X410706Y336500D01*
X410753Y336263D01*
X409542Y335052D01*
X409234Y334591D01*
X409126Y334047D01*
Y333874D01*
X382158D01*
X381615Y333766D01*
X381154Y333458D01*
X380648Y332952D01*
X380645Y332950D01*
X379557Y331862D01*
X375236D01*
Y329921D01*
X370068D01*
X369933Y330122D01*
X369189Y330619D01*
X368311Y330794D01*
X367433Y330619D01*
X366689Y330122D01*
X366192Y329378D01*
X366017Y328500D01*
X366192Y327622D01*
X366689Y326878D01*
X367433Y326380D01*
X368311Y326206D01*
X369189Y326380D01*
X369933Y326878D01*
X370068Y327079D01*
X375236D01*
Y325138D01*
X381567D01*
Y329853D01*
X382652Y330938D01*
X382655Y330940D01*
X382747Y331032D01*
X383504D01*
Y325138D01*
X389835D01*
Y327079D01*
X393760D01*
Y324941D01*
X399500D01*
Y331032D01*
X400256D01*
Y324941D01*
X405996D01*
Y327079D01*
X407911D01*
X412793Y322197D01*
X412678Y321918D01*
X412554Y321729D01*
X412145Y321648D01*
X411984Y321540D01*
X411824Y321648D01*
X411384Y321735D01*
X410616D01*
X410176Y321648D01*
X410016Y321540D01*
X409856Y321648D01*
X409415Y321735D01*
X408648D01*
X408208Y321648D01*
X408047Y321540D01*
X407887Y321648D01*
X407447Y321735D01*
X406679D01*
X406239Y321648D01*
X406079Y321540D01*
X405919Y321648D01*
X405478Y321735D01*
X404711D01*
X404271Y321648D01*
X404110Y321540D01*
X403950Y321648D01*
X403510Y321735D01*
X402742D01*
X402302Y321648D01*
X402142Y321540D01*
X401981Y321648D01*
X401541Y321735D01*
X400774D01*
X400333Y321648D01*
X399960Y321398D01*
X399711Y321025D01*
X399624Y320585D01*
Y319782D01*
X386422D01*
Y321920D01*
X380681D01*
Y314802D01*
X386422D01*
Y316940D01*
X394363D01*
X394515Y316440D01*
X394276Y316281D01*
X391495Y313500D01*
X391187Y313039D01*
X391079Y312495D01*
Y307551D01*
X390855Y307383D01*
X390336Y307537D01*
X390292Y307575D01*
X390005Y308005D01*
X387992Y310018D01*
X387531Y310326D01*
X386987Y310434D01*
X386422D01*
Y312572D01*
X380681D01*
Y305454D01*
X386422D01*
Y306915D01*
X386884Y307107D01*
X387579Y306411D01*
Y304757D01*
X387378Y304622D01*
X386880Y303878D01*
X386806Y303503D01*
X386422Y303224D01*
X380681D01*
Y296106D01*
X386317D01*
X386754Y295744D01*
X386706Y295500D01*
X386776Y295150D01*
X386350Y294724D01*
X386000Y294794D01*
X385313Y294657D01*
X382152D01*
Y287343D01*
X387695D01*
Y290987D01*
X388120Y291622D01*
X388294Y292500D01*
X388224Y292850D01*
X388650Y293276D01*
X389000Y293206D01*
X389237Y293253D01*
X390120Y292370D01*
Y288931D01*
X390229Y288387D01*
X390537Y287926D01*
X392900Y285563D01*
X392654Y285102D01*
X392143Y285204D01*
X391265Y285029D01*
X390521Y284532D01*
X390023Y283787D01*
X389849Y282909D01*
X390023Y282031D01*
X390521Y281287D01*
X391265Y280790D01*
X392143Y280615D01*
X392507Y280688D01*
X392508Y280687D01*
X393052Y280579D01*
X394819D01*
X395054Y280138D01*
X394881Y279878D01*
X394706Y279000D01*
X394881Y278122D01*
X395378Y277378D01*
X396122Y276881D01*
X397000Y276706D01*
X397878Y276881D01*
X398622Y277378D01*
X398757Y277579D01*
X407000D01*
X407544Y277687D01*
X408005Y277995D01*
X413973Y283964D01*
X414101Y284155D01*
X414717Y284246D01*
X417755Y281208D01*
X418216Y280900D01*
X418760Y280792D01*
X418760Y280792D01*
X436713D01*
X437256Y280900D01*
X437717Y281208D01*
X451005Y294495D01*
X451313Y294956D01*
X451421Y295500D01*
Y298743D01*
X451622Y298878D01*
X452119Y299622D01*
X452294Y300500D01*
X452119Y301378D01*
X451622Y302122D01*
X450878Y302620D01*
X450000Y302794D01*
X449277Y302650D01*
X448777Y302945D01*
Y309268D01*
X451900Y312390D01*
Y314400D01*
X449890D01*
X447663Y312173D01*
X447129Y312345D01*
X447121Y312392D01*
X447513Y312978D01*
X447688Y313856D01*
X447513Y314734D01*
X447016Y315478D01*
X446272Y315976D01*
X445394Y316150D01*
X444516Y315976D01*
X443772Y315478D01*
X443274Y314734D01*
X443100Y313856D01*
X443274Y312978D01*
X443772Y312234D01*
X443973Y312100D01*
Y307670D01*
X443473Y307375D01*
X442750Y307519D01*
X441872Y307345D01*
X441128Y306847D01*
X440921Y306538D01*
X440421Y306689D01*
Y317732D01*
X442913Y320224D01*
X443150Y320177D01*
X444028Y320352D01*
X444772Y320849D01*
X445269Y321593D01*
X445444Y322471D01*
X445269Y323349D01*
X444772Y324093D01*
X444028Y324590D01*
X443150Y324765D01*
X442272Y324590D01*
X441528Y324093D01*
X441031Y323349D01*
X440856Y322471D01*
X440903Y322234D01*
X437995Y319326D01*
X437921Y319215D01*
X437421Y319366D01*
Y326411D01*
X437763Y326753D01*
X438000Y326706D01*
X438878Y326881D01*
X439622Y327378D01*
X440119Y328122D01*
X440294Y329000D01*
X440247Y329237D01*
X441589Y330579D01*
X469156D01*
X477323Y322411D01*
Y317925D01*
X477431Y317381D01*
X477739Y316920D01*
X479138Y315522D01*
Y311201D01*
X485862D01*
Y317531D01*
X481147D01*
X480165Y318514D01*
Y319468D01*
X485862D01*
Y325799D01*
X481344D01*
X472139Y335005D01*
X471678Y335313D01*
X471134Y335421D01*
X442181D01*
X441946Y335862D01*
X442119Y336122D01*
X442195Y336500D01*
X440000D01*
Y337500D01*
X442195D01*
X442119Y337878D01*
X441622Y338622D01*
X441057Y339000D01*
X441208Y339500D01*
X498500D01*
X499049Y339526D01*
X500133Y339350D01*
D02*
G37*
G36*
X437579Y303955D02*
Y301089D01*
X425699Y289208D01*
X422589D01*
X422263Y289533D01*
Y289930D01*
X422289Y289968D01*
X422376Y290408D01*
Y294120D01*
X426089D01*
X426529Y294208D01*
X426902Y294457D01*
X427151Y294830D01*
X427239Y295270D01*
Y296038D01*
X427151Y296478D01*
X427044Y296638D01*
X427151Y296798D01*
X427239Y297238D01*
Y298006D01*
X427373Y298170D01*
X430591D01*
X431135Y298278D01*
X431596Y298586D01*
X437005Y303995D01*
X437079Y304106D01*
X437579Y303955D01*
D02*
G37*
%LPC*%
G36*
X358453Y333249D02*
X356000D01*
Y327799D01*
X364353D01*
X364288Y328460D01*
X363950Y329576D01*
X363400Y330605D01*
X362660Y331506D01*
X361758Y332246D01*
X360730Y332796D01*
X359613Y333135D01*
X358453Y333249D01*
D02*
G37*
G36*
X355000D02*
X352547D01*
X351386Y333135D01*
X350270Y332796D01*
X349242Y332246D01*
X348340Y331506D01*
X347600Y330605D01*
X347050Y329576D01*
X346712Y328460D01*
X346647Y327799D01*
X355000D01*
Y333249D01*
D02*
G37*
G36*
Y326799D02*
X346647D01*
X346712Y326138D01*
X347050Y325022D01*
X347600Y323994D01*
X348340Y323092D01*
X349242Y322352D01*
X350270Y321802D01*
X351386Y321464D01*
X352547Y321349D01*
X355000D01*
Y326799D01*
D02*
G37*
G36*
X364353D02*
X356000D01*
Y321349D01*
X358453D01*
X359315Y321434D01*
X359317Y321433D01*
X359581Y320958D01*
X359331Y320631D01*
X358932Y319670D01*
X358862Y319138D01*
X362874D01*
Y322632D01*
X362716Y322890D01*
X362679Y323115D01*
X363400Y323994D01*
X363950Y325022D01*
X364288Y326138D01*
X364353Y326799D01*
D02*
G37*
G36*
X379926Y321920D02*
X377555D01*
Y318861D01*
X379926D01*
Y321920D01*
D02*
G37*
G36*
X452900Y317095D02*
Y315400D01*
X454595D01*
X454519Y315778D01*
X454022Y316522D01*
X453278Y317020D01*
X452900Y317095D01*
D02*
G37*
G36*
X451900D02*
X451522Y317020D01*
X450778Y316522D01*
X450281Y315778D01*
X450205Y315400D01*
X451900D01*
Y317095D01*
D02*
G37*
G36*
X379926Y317861D02*
X377555D01*
Y314802D01*
X379926D01*
Y317861D01*
D02*
G37*
G36*
X363965Y322625D02*
X363874D01*
Y318638D01*
Y314651D01*
X363965D01*
X364997Y314787D01*
X365958Y315185D01*
X366589Y315669D01*
X371657D01*
Y316476D01*
X374185D01*
Y314802D01*
X376555D01*
Y318361D01*
Y321920D01*
X374185D01*
Y320523D01*
X371657D01*
Y321606D01*
X366589D01*
X365958Y322091D01*
X364997Y322489D01*
X363965Y322625D01*
D02*
G37*
G36*
X362874Y318138D02*
X358862D01*
X358932Y317606D01*
X359331Y316644D01*
X359815Y316013D01*
Y315669D01*
X360159D01*
X360790Y315185D01*
X361752Y314787D01*
X362784Y314651D01*
X362874D01*
Y318138D01*
D02*
G37*
G36*
X454595Y314400D02*
X452900D01*
Y312705D01*
X453278Y312780D01*
X454022Y313278D01*
X454519Y314022D01*
X454595Y314400D01*
D02*
G37*
G36*
X355500Y316909D02*
X354674Y316800D01*
X353904Y316481D01*
X353242Y315974D01*
X352735Y315313D01*
X352416Y314543D01*
X352307Y313717D01*
X352416Y312890D01*
X352735Y312120D01*
X353242Y311459D01*
X353904Y310952D01*
X354674Y310633D01*
X355500Y310524D01*
X356326Y310633D01*
X357096Y310952D01*
X357757Y311459D01*
X358265Y312120D01*
X358584Y312890D01*
X358693Y313717D01*
X358584Y314543D01*
X358265Y315313D01*
X357757Y315974D01*
X357096Y316481D01*
X356326Y316800D01*
X355500Y316909D01*
D02*
G37*
G36*
X363965Y312782D02*
X362784D01*
X361752Y312646D01*
X360790Y312248D01*
X360159Y311764D01*
X359815D01*
Y311420D01*
X359331Y310789D01*
X358932Y309827D01*
X358797Y308795D01*
X358932Y307763D01*
X359331Y306802D01*
X359815Y306171D01*
Y305827D01*
X360159D01*
X360790Y305343D01*
X361306Y305129D01*
Y304588D01*
X360790Y304374D01*
X360159Y303890D01*
X359815D01*
Y303546D01*
X359331Y302915D01*
X358932Y301953D01*
X358797Y300921D01*
X358932Y299889D01*
X359331Y298928D01*
X359815Y298297D01*
Y297953D01*
X360159D01*
X360790Y297468D01*
X361752Y297070D01*
X362784Y296934D01*
X363965D01*
X364997Y297070D01*
X365958Y297468D01*
X366589Y297953D01*
X371657D01*
Y298898D01*
X374185D01*
Y297196D01*
X373685Y296901D01*
X373465Y296945D01*
Y294750D01*
X372965D01*
Y294250D01*
X370583D01*
X370416Y294047D01*
X366589D01*
X365958Y294531D01*
X364997Y294930D01*
X363965Y295066D01*
X362784D01*
X361752Y294930D01*
X360790Y294531D01*
X360159Y294047D01*
X359815D01*
Y293703D01*
X359331Y293072D01*
X358932Y292111D01*
X358797Y291079D01*
X358932Y290047D01*
X359331Y289085D01*
X359581Y288758D01*
X359317Y288283D01*
X359315Y288282D01*
X358453Y288367D01*
X356000D01*
Y282917D01*
X364353D01*
X364288Y283578D01*
X363950Y284694D01*
X363400Y285723D01*
X362679Y286601D01*
X362716Y286827D01*
X362879Y287092D01*
X363965D01*
X364997Y287228D01*
X365958Y287626D01*
X366589Y288110D01*
X368288D01*
X371107Y285292D01*
X371140Y285122D01*
X371638Y284378D01*
X372382Y283880D01*
X373260Y283706D01*
X374138Y283880D01*
X374882Y284378D01*
X375379Y285122D01*
X375554Y286000D01*
X375386Y286842D01*
X375392Y286955D01*
X375599Y287343D01*
X376943D01*
Y291000D01*
Y294657D01*
X376202D01*
X376065Y294685D01*
X375312D01*
X375259Y294750D01*
X375088Y295606D01*
X375081Y295695D01*
X375341Y296106D01*
X379926D01*
Y303224D01*
X374185D01*
Y302944D01*
X371657D01*
Y303890D01*
X366589D01*
X365958Y304374D01*
X365442Y304588D01*
Y305129D01*
X365958Y305343D01*
X366589Y305827D01*
X371657D01*
Y306881D01*
X374185D01*
Y305454D01*
X379926D01*
Y312572D01*
X374185D01*
Y310927D01*
X371657D01*
Y311764D01*
X366589D01*
X365958Y312248D01*
X364997Y312646D01*
X363965Y312782D01*
D02*
G37*
G36*
X372465Y296945D02*
X372087Y296869D01*
X371342Y296372D01*
X370845Y295628D01*
X370770Y295250D01*
X372465D01*
Y296945D01*
D02*
G37*
G36*
X355500Y299193D02*
X354674Y299084D01*
X353904Y298765D01*
X353242Y298257D01*
X352735Y297596D01*
X352416Y296826D01*
X352307Y296000D01*
X352416Y295174D01*
X352735Y294404D01*
X353242Y293742D01*
X353904Y293235D01*
X354674Y292916D01*
X355500Y292807D01*
X356326Y292916D01*
X357096Y293235D01*
X357757Y293742D01*
X358265Y294404D01*
X358584Y295174D01*
X358693Y296000D01*
X358584Y296826D01*
X358265Y297596D01*
X357757Y298257D01*
X357096Y298765D01*
X356326Y299084D01*
X355500Y299193D01*
D02*
G37*
G36*
X380215Y294657D02*
X377943D01*
Y291500D01*
X380215D01*
Y294657D01*
D02*
G37*
G36*
Y290500D02*
X377943D01*
Y287343D01*
X380215D01*
Y290500D01*
D02*
G37*
G36*
X386000Y284695D02*
Y283000D01*
X387695D01*
X387619Y283378D01*
X387122Y284122D01*
X386378Y284619D01*
X386000Y284695D01*
D02*
G37*
G36*
X385000D02*
X384622Y284619D01*
X383878Y284122D01*
X383381Y283378D01*
X383305Y283000D01*
X385000D01*
Y284695D01*
D02*
G37*
G36*
X355000Y288367D02*
X352547D01*
X351386Y288253D01*
X350270Y287914D01*
X349242Y287365D01*
X348340Y286625D01*
X347600Y285723D01*
X347050Y284694D01*
X346712Y283578D01*
X346647Y282917D01*
X355000D01*
Y288367D01*
D02*
G37*
G36*
X364353Y281917D02*
X356000D01*
Y276467D01*
X358453D01*
X359613Y276582D01*
X360730Y276920D01*
X361758Y277470D01*
X362660Y278210D01*
X363400Y279112D01*
X363950Y280140D01*
X364288Y281257D01*
X364353Y281917D01*
D02*
G37*
G36*
X355000D02*
X346647D01*
X346712Y281257D01*
X347050Y280140D01*
X347600Y279112D01*
X348340Y278210D01*
X349242Y277470D01*
X350270Y276920D01*
X351386Y276582D01*
X352547Y276467D01*
X355000D01*
Y281917D01*
D02*
G37*
G36*
X387695Y282000D02*
X383305D01*
X383381Y281622D01*
X383878Y280878D01*
X384079Y280743D01*
Y276757D01*
X383878Y276622D01*
X383381Y275878D01*
X383305Y275500D01*
X387695D01*
X387619Y275878D01*
X387122Y276622D01*
X386921Y276757D01*
Y280743D01*
X387122Y280878D01*
X387619Y281622D01*
X387695Y282000D01*
D02*
G37*
G36*
Y274500D02*
X386000D01*
Y272805D01*
X386378Y272881D01*
X387122Y273378D01*
X387619Y274122D01*
X387695Y274500D01*
D02*
G37*
G36*
X385000D02*
X383305D01*
X383381Y274122D01*
X383878Y273378D01*
X384622Y272881D01*
X385000Y272805D01*
Y274500D01*
D02*
G37*
%LPD*%
D10*
X439000Y338000D02*
X440000Y337000D01*
X420000Y338000D02*
X439000D01*
X414500Y332500D02*
X420000Y338000D01*
X452400Y314900D02*
X452500Y315000D01*
X447356Y309856D02*
X452400Y314900D01*
X447356Y296856D02*
Y309856D01*
X410547Y330453D02*
Y332453D01*
Y330453D02*
X418874Y322126D01*
X410547Y334047D02*
X413000Y336500D01*
X410547Y332453D02*
Y334047D01*
X414500Y329081D02*
Y332500D01*
X420843Y318725D02*
Y322738D01*
X414500Y329081D02*
X420843Y322738D01*
X418874Y318725D02*
Y322126D01*
X414937Y318725D02*
Y322063D01*
X408500Y328500D02*
X414937Y322063D01*
X403126Y328500D02*
X408500D01*
X397000Y279000D02*
X407000D01*
X412968Y284968D01*
Y292268D01*
X406500Y282000D02*
X411000Y286500D01*
X393052Y282000D02*
X406500D01*
X411000Y286500D02*
Y292268D01*
X392143Y282909D02*
X393052Y282000D01*
X404740Y284713D02*
X407063Y287035D01*
X395760Y284713D02*
X404740D01*
X407063Y287035D02*
Y292268D01*
X391541Y288931D02*
Y292959D01*
Y288931D02*
X395760Y284713D01*
X389000Y295500D02*
X391541Y292959D01*
X389096Y299665D02*
X393500Y295261D01*
X383552Y299665D02*
X389096D01*
X393500Y289500D02*
Y295261D01*
X405094Y287595D02*
Y292268D01*
X404000Y286500D02*
X405094Y287595D01*
X403126Y288913D02*
Y292268D01*
X402500Y288287D02*
X403126Y288913D01*
X414937Y286035D02*
X418760Y282213D01*
X414937Y286035D02*
Y292268D01*
X416905Y286595D02*
Y292268D01*
Y286595D02*
X419500Y284000D01*
X436000Y327000D02*
X438000Y329000D01*
X441000Y332000D01*
X432500Y305000D02*
Y329000D01*
X429059Y301559D02*
X432500Y305000D01*
X424228Y301559D02*
X429059D01*
X436000Y305000D02*
Y327000D01*
X430591Y299591D02*
X436000Y305000D01*
X424228Y299591D02*
X430591D01*
X385500Y275000D02*
Y282500D01*
X450000Y295500D02*
Y300500D01*
X436713Y282213D02*
X450000Y295500D01*
X418760Y282213D02*
X436713D01*
X440500Y290000D02*
X447356Y296856D01*
X442750Y300250D02*
Y305225D01*
X428500Y286000D02*
X442750Y300250D01*
X439000Y318321D02*
X443150Y322471D01*
X439000Y300500D02*
Y318321D01*
X426287Y287787D02*
X439000Y300500D01*
X445394Y298894D02*
Y313856D01*
X430500Y284000D02*
X445394Y298894D01*
X419500Y284000D02*
X430500D01*
X420500Y286000D02*
X428500D01*
X422000Y287787D02*
X426287D01*
X377443Y291000D02*
Y291886D01*
X376065Y293264D02*
X377443Y291886D01*
X374451Y293264D02*
X376065D01*
X372965Y294750D02*
X374451Y293264D01*
X396500Y286500D02*
X404000D01*
X393500Y289500D02*
X396500Y286500D01*
X398713Y288287D02*
X402500D01*
X397000Y290000D02*
X398713Y288287D01*
X397000Y290000D02*
Y295536D01*
X478744Y317925D02*
X482303Y314366D01*
X478744Y317925D02*
Y323000D01*
X482303Y314366D02*
X482500D01*
X389000Y303000D02*
Y307000D01*
X386987Y309013D02*
X389000Y307000D01*
X392500Y300000D02*
X393000D01*
X393409Y299591D01*
X397709Y315276D02*
X397772Y315339D01*
X395281Y315276D02*
X397709D01*
X392500Y312495D02*
X395281Y315276D01*
X392500Y305500D02*
Y312495D01*
X368311Y328500D02*
X378402D01*
X397000Y295536D02*
X397118Y295654D01*
X397772D01*
X378402Y328500D02*
Y328697D01*
X381650Y331945D01*
X381651D01*
X382158Y332453D02*
X410547D01*
X381651Y331945D02*
X382158Y332453D01*
X424228Y315339D02*
Y322272D01*
X417000Y329500D02*
X424228Y322272D01*
X417000Y329500D02*
Y332000D01*
X419000Y334000D01*
X426760D01*
X427610Y305896D02*
Y322890D01*
X420000Y330500D02*
X427610Y322890D01*
X429500Y305258D02*
Y325500D01*
X424000Y331000D02*
X429500Y325500D01*
X469744Y332000D02*
X478744Y323000D01*
X441000Y332000D02*
X469744D01*
X420843Y288945D02*
X422000Y287787D01*
X420843Y288945D02*
Y292268D01*
X418874Y287626D02*
X420500Y286000D01*
X418874Y287626D02*
Y292268D01*
X427769Y303528D02*
X429500Y305258D01*
X424228Y303528D02*
X427769D01*
X427210Y305496D02*
X427610Y305896D01*
X424228Y305496D02*
X427210D01*
X434496Y334689D02*
X435185Y334000D01*
X471134D02*
X482500Y322634D01*
X435185Y334000D02*
X471134D01*
X434496D02*
Y334689D01*
X386669Y328500D02*
X396630D01*
X396630Y328500D01*
X383552Y318361D02*
X401039D01*
X401158Y318479D01*
Y318725D01*
X420843Y315339D02*
Y318725D01*
X411000Y305496D02*
X420843Y315339D01*
X397772Y313370D02*
X403126D01*
X411000Y305496D01*
X409031Y303528D02*
X411000Y305496D01*
X403126Y297622D02*
X409031Y303528D01*
X397772Y297622D02*
X403126D01*
X409031Y292268D02*
Y303528D01*
X414937Y301559D02*
X424228D01*
X411000Y305496D02*
X414937Y301559D01*
X393409Y299591D02*
X397772D01*
X383552Y309013D02*
X386987D01*
D30*
X403126Y328500D02*
D03*
X396630D02*
D03*
X428500Y334000D02*
D03*
X434996D02*
D03*
X383552Y318361D02*
D03*
X377056D02*
D03*
Y299665D02*
D03*
X383552D02*
D03*
X377056Y309013D02*
D03*
X383552D02*
D03*
D31*
X386669Y328500D02*
D03*
X378402D02*
D03*
D32*
X384923Y291000D02*
D03*
X377443D02*
D03*
D33*
X411000Y305496D02*
D03*
D34*
X401158Y318725D02*
D03*
X403126D02*
D03*
X405094D02*
D03*
X407063D02*
D03*
X409031D02*
D03*
X411000D02*
D03*
X412968D02*
D03*
X414937D02*
D03*
X416905D02*
D03*
X418874D02*
D03*
X420843D02*
D03*
Y292268D02*
D03*
X418874D02*
D03*
X416905D02*
D03*
X414937D02*
D03*
X412968D02*
D03*
X411000D02*
D03*
X409031D02*
D03*
X407063D02*
D03*
X405094D02*
D03*
X403126D02*
D03*
X401158D02*
D03*
D35*
X397772Y295654D02*
D03*
Y297622D02*
D03*
Y299591D02*
D03*
Y301559D02*
D03*
Y303528D02*
D03*
Y305496D02*
D03*
Y307465D02*
D03*
Y309433D02*
D03*
Y311402D02*
D03*
Y313370D02*
D03*
Y315339D02*
D03*
X424228D02*
D03*
Y313370D02*
D03*
Y311402D02*
D03*
Y309433D02*
D03*
Y307465D02*
D03*
Y305496D02*
D03*
Y303528D02*
D03*
Y301559D02*
D03*
Y299591D02*
D03*
Y297622D02*
D03*
Y295654D02*
D03*
D36*
X482500Y314366D02*
D03*
Y322634D02*
D03*
D37*
X365736Y318638D02*
D03*
Y308795D02*
D03*
Y300921D02*
D03*
Y291079D02*
D03*
D38*
X368181D02*
X373260Y286000D01*
X365736Y291079D02*
X368181D01*
X365736Y318638D02*
X365875Y318499D01*
X376917D01*
X377056Y318361D01*
X365736Y300921D02*
X376170D01*
X377056Y300035D01*
Y299665D02*
Y300035D01*
X365736Y308795D02*
X365845Y308904D01*
X376947D01*
X377056Y309013D01*
D39*
X363374Y318638D02*
D03*
Y308795D02*
D03*
Y300921D02*
D03*
Y291079D02*
D03*
D40*
X355500Y327299D02*
D03*
Y282417D02*
D03*
D41*
Y313717D02*
D03*
Y296000D02*
D03*
D42*
X440000Y337000D02*
D03*
X438000Y329000D02*
D03*
X432500D02*
D03*
X385500Y275000D02*
D03*
X452400Y314900D02*
D03*
X450000Y300500D02*
D03*
X440500Y290000D02*
D03*
X372965Y294750D02*
D03*
X392143Y282909D02*
D03*
X397000Y290000D02*
D03*
X385500Y282500D02*
D03*
X389000Y303000D02*
D03*
Y295500D02*
D03*
X403335Y302165D02*
D03*
X386000Y292500D02*
D03*
X392500Y300000D02*
D03*
Y305500D02*
D03*
X368311Y328500D02*
D03*
X413000Y336500D02*
D03*
X397000Y279000D02*
D03*
X420000Y330500D02*
D03*
X424000Y331000D02*
D03*
X445394Y313856D02*
D03*
X443150Y322471D02*
D03*
X442750Y305225D02*
D03*
X373260Y286000D02*
D03*
M02*
