G04*
G04 #@! TF.GenerationSoftware,Altium Limited,Altium Designer,20.0.2 (26)*
G04*
G04 Layer_Color=8388736*
%FSLAX25Y25*%
%MOIN*%
G70*
G01*
G75*
%ADD17R,0.04540X0.05918*%
%ADD18R,0.05131X0.05524*%
%ADD19R,0.04343X0.06115*%
%ADD20R,0.21272X0.21272*%
G04:AMPARAMS|DCode=21|XSize=47.76mil|YSize=18.24mil|CornerRadius=5.28mil|HoleSize=0mil|Usage=FLASHONLY|Rotation=90.000|XOffset=0mil|YOffset=0mil|HoleType=Round|Shape=RoundedRectangle|*
%AMROUNDEDRECTD21*
21,1,0.04776,0.00768,0,0,90.0*
21,1,0.03720,0.01824,0,0,90.0*
1,1,0.01056,0.00384,0.01860*
1,1,0.01056,0.00384,-0.01860*
1,1,0.01056,-0.00384,-0.01860*
1,1,0.01056,-0.00384,0.01860*
%
%ADD21ROUNDEDRECTD21*%
G04:AMPARAMS|DCode=22|XSize=18.24mil|YSize=47.76mil|CornerRadius=5.28mil|HoleSize=0mil|Usage=FLASHONLY|Rotation=90.000|XOffset=0mil|YOffset=0mil|HoleType=Round|Shape=RoundedRectangle|*
%AMROUNDEDRECTD22*
21,1,0.01824,0.03720,0,0,90.0*
21,1,0.00768,0.04776,0,0,90.0*
1,1,0.01056,0.01860,0.00384*
1,1,0.01056,0.01860,-0.00384*
1,1,0.01056,-0.01860,-0.00384*
1,1,0.01056,-0.01860,0.00384*
%
%ADD22ROUNDEDRECTD22*%
%ADD23R,0.05524X0.05131*%
%ADD24R,0.10642X0.04737*%
%ADD25C,0.00800*%
%ADD26O,0.07887X0.06706*%
%ADD27O,0.16548X0.10642*%
%ADD28C,0.03950*%
%ADD29C,0.03300*%
D17*
X403126Y328500D02*
D03*
X396630D02*
D03*
X428500Y334000D02*
D03*
X434996D02*
D03*
X383552Y318361D02*
D03*
X377056D02*
D03*
Y299665D02*
D03*
X383552D02*
D03*
X377056Y309013D02*
D03*
X383552D02*
D03*
D18*
X386669Y328500D02*
D03*
X378402D02*
D03*
D19*
X384923Y291000D02*
D03*
X377443D02*
D03*
D20*
X411000Y305496D02*
D03*
D21*
X401158Y318725D02*
D03*
X403126D02*
D03*
X405094D02*
D03*
X407063D02*
D03*
X409031D02*
D03*
X411000D02*
D03*
X412968D02*
D03*
X414937D02*
D03*
X416905D02*
D03*
X418874D02*
D03*
X420843D02*
D03*
Y292268D02*
D03*
X418874D02*
D03*
X416905D02*
D03*
X414937D02*
D03*
X412968D02*
D03*
X411000D02*
D03*
X409031D02*
D03*
X407063D02*
D03*
X405094D02*
D03*
X403126D02*
D03*
X401158D02*
D03*
D22*
X397772Y295654D02*
D03*
Y297622D02*
D03*
Y299591D02*
D03*
Y301559D02*
D03*
Y303528D02*
D03*
Y305496D02*
D03*
Y307465D02*
D03*
Y309433D02*
D03*
Y311402D02*
D03*
Y313370D02*
D03*
Y315339D02*
D03*
X424228D02*
D03*
Y313370D02*
D03*
Y311402D02*
D03*
Y309433D02*
D03*
Y307465D02*
D03*
Y305496D02*
D03*
Y303528D02*
D03*
Y301559D02*
D03*
Y299591D02*
D03*
Y297622D02*
D03*
Y295654D02*
D03*
D23*
X482500Y314366D02*
D03*
Y322634D02*
D03*
D24*
X365736Y318638D02*
D03*
Y308795D02*
D03*
Y300921D02*
D03*
Y291079D02*
D03*
D25*
X488000Y324693D02*
D03*
Y293000D02*
D03*
D26*
X363374Y318638D02*
D03*
Y308795D02*
D03*
Y300921D02*
D03*
Y291079D02*
D03*
D27*
X355500Y327299D02*
D03*
Y282417D02*
D03*
D28*
Y313717D02*
D03*
Y296000D02*
D03*
D29*
X440000Y337000D02*
D03*
X438000Y329000D02*
D03*
X432500D02*
D03*
X385500Y275000D02*
D03*
X452400Y314900D02*
D03*
X450000Y300500D02*
D03*
X440500Y290000D02*
D03*
X372965Y294750D02*
D03*
X392143Y282909D02*
D03*
X397000Y290000D02*
D03*
X385500Y282500D02*
D03*
X389000Y303000D02*
D03*
Y295500D02*
D03*
X403335Y302165D02*
D03*
X386000Y292500D02*
D03*
X392500Y300000D02*
D03*
Y305500D02*
D03*
X368311Y328500D02*
D03*
X413000Y336500D02*
D03*
X397000Y279000D02*
D03*
X420000Y330500D02*
D03*
X424000Y331000D02*
D03*
X445394Y313856D02*
D03*
X443150Y322471D02*
D03*
X442750Y305225D02*
D03*
X373260Y286000D02*
D03*
M02*
