G04*
G04 #@! TF.GenerationSoftware,Altium Limited,Altium Designer,20.0.2 (26)*
G04*
G04 Layer_Color=16711935*
%FSLAX25Y25*%
%MOIN*%
G70*
G01*
G75*
%ADD10C,0.00787*%
%ADD13C,0.00500*%
%ADD15C,0.00394*%
D10*
X401551Y287504D02*
G03*
X401551Y287504I-394J0D01*
G01*
D13*
X397220Y291717D02*
X424780Y291717D01*
X397220Y319276D02*
X424780Y319276D01*
X397220Y291717D02*
X397220Y319276D01*
X424780Y291717D02*
X424780Y319276D01*
D15*
X372965Y300941D02*
Y306059D01*
X381035Y300941D02*
Y306059D01*
X372965Y300941D02*
X381035D01*
X372965Y306059D02*
X381035D01*
X381035Y325941D02*
Y331059D01*
X372965Y325941D02*
Y331059D01*
X381035D01*
X372965Y325941D02*
X381035D01*
X391475Y309701D02*
Y322299D01*
X371790Y309701D02*
X391475D01*
X371790D02*
Y322299D01*
X391475D01*
X372965Y292191D02*
Y297309D01*
X381035Y292191D02*
Y297309D01*
X372965Y292191D02*
X381035D01*
X372965Y297309D02*
X381035D01*
X404110Y325744D02*
Y331256D01*
X395646Y325744D02*
Y331256D01*
Y325744D02*
X404110D01*
X395646Y331256D02*
X404110D01*
X378402Y325842D02*
X386669D01*
X378402Y331157D02*
X386669D01*
Y325842D02*
Y331157D01*
X378402Y325842D02*
Y331157D01*
X372965Y283441D02*
X381035D01*
X372965Y288559D02*
X381035D01*
X372965Y283441D02*
Y288559D01*
X381035Y283441D02*
Y288559D01*
X427516Y331244D02*
Y336756D01*
X435980Y331244D02*
Y336756D01*
X427516D02*
X435980D01*
X427516Y331244D02*
X435980D01*
X399913Y316894D02*
X407984D01*
X399913Y311776D02*
X407984D01*
Y316894D01*
X399913Y311776D02*
Y316894D01*
X399969Y320783D02*
Y326295D01*
X408433Y320783D02*
Y326295D01*
X399969Y320783D02*
X408433D01*
X399969Y326295D02*
X408433D01*
X394760Y298000D02*
X421138D01*
X394760Y283433D02*
X421138D01*
X394760D02*
Y298000D01*
X421138Y283433D02*
Y298000D01*
X419142Y315764D02*
Y323835D01*
X414024Y315764D02*
Y323835D01*
Y315764D02*
X419142D01*
X414024Y323835D02*
X419142D01*
X384536Y315605D02*
Y321117D01*
X376071Y315605D02*
Y321117D01*
Y315605D02*
X384536D01*
X376071Y321117D02*
X384536D01*
X377148Y288441D02*
X385219D01*
X377148Y293559D02*
X385219D01*
Y288441D02*
Y293559D01*
X377148Y288441D02*
Y293559D01*
X376071Y296909D02*
Y302421D01*
X384536Y296909D02*
Y302421D01*
X376071D02*
X384536D01*
X376071Y296909D02*
X384536D01*
X376071Y306257D02*
Y311769D01*
X384536Y306257D02*
Y311769D01*
X376071D02*
X384536D01*
X376071Y306257D02*
X384536D01*
X426465Y291059D02*
X434535D01*
X426465Y285941D02*
X434535D01*
Y291059D01*
X426465Y285941D02*
Y291059D01*
X479843Y314366D02*
X485157D01*
X479843Y322634D02*
X485157D01*
X479843Y314366D02*
Y322634D01*
X485157Y314366D02*
Y322634D01*
X284634Y278874D02*
X359437D01*
X284634Y330449D02*
X359437D01*
X284634Y278874D02*
Y330449D01*
X359437Y278874D02*
Y330449D01*
M02*
